<?xml version="1.0" encoding="UTF-8"?>
<svg viewBox="0 0 204 208" xmlns="http://www.w3.org/2000/svg" xmlns:xlink="http://www.w3.org/1999/xlink">
 <g fill="#7f7f7f" stroke-width="0">
  <path d="m3.6768 153.27c26.074 14.616 59.097 13.799 84.945 0 2.1367-1.2888-28.239-4.6335-42.613-4.6335-25.685 0-42.799 2.5524-42.332 4.6335z" opacity=".75"/>
  <path d="m64.55 189.23s-0.23653-4.016 5.8845-4.1028c6.121-0.086838 59.626 0 63.62 0 3.9939 0 4.9889 2.7323 4.9542 4.121-0.084564 3.4129-27.606 10.527-27.615 10.378l-36.466-2.9222c-3.4592-2.4915-8.3573-2.441-10.378-7.4745z" opacity=".75"/>
  <path d="m64.575 188.76v7.8039c-0.26327 8.2338 74.427 8.6401 74.409 0v-7.8039c0.071228 8.686-74.559 8.6995-74.409 0z" opacity=".75"/>
  <path d="m69.433 183.4c0.098465-1.4226 10.075-5.111 31.326-5.111 21.366 0 33.367 2.9364 33.367 5.2184 0 0.55254-6.5691 5.0343-6.5691 5.0343l-27.474 2.6399-30.236-4.9115-0.4144-2.8701z" opacity=".75"/>
  <path d="m69.443 183.2v5.6605c0.11847 5.1909 64.688 5.9198 64.672 0v-5.6605c-0.024918 5.6058-64.63 5.5288-64.672 0z" opacity=".75"/>
  <path d="m116.3 183.77s-9.1299-0.96104-11.292-2.4026c-2.1623-1.4416-1.6818-1.5617-3.9042-1.5617s-1.7419 0.12013-3.9042 1.5617-11.292 2.4026-11.292 2.4026" opacity=".75"/>
  <path id="f" d="m93.93 175.23l15.697 0.0239c0.11574 0.61305-5.0044 5.1231-6.6702 5.0352l-3.2158-0.0192c-1.8896 0.059464-5.8288-4.7871-5.8112-5.0399z" fill="#7f7f7f" opacity=".75" stroke-width="0"/>
  <g transform="matrix(.96104 0 0 .96104 5.91 4.0595)" opacity=".75">
   <path d="m99.521 19.373c-0.26388 0-0.53061 0.01207-0.78125 0.03125-0.29799 0.0228-0.57016 0.077581-0.84374 0.125-1.6316 0.28277-2.7813 0.95811-2.7813 1.7812v4.3438c-4.9359-2.8624-11.038-4.4062-15.406-4.4062-5.8336 0-8.8712 0.68827-15.875 4.5625-5.8238 3.2215-7.4341 4.6026-11.5 3.7188-4.0659-0.88389-6.0037-2.9804-8.125-3.6875-2.1213-0.70711-5.3005 1.5716-5.5 2.25-0.22098 0.7513-0.91698-0.18842-1.0938-0.71875-0.17679-0.53033-4.1768 1.742-4 3.1562 0.17677 1.4142 3.6162 5.29 4.125 3.625 0.48615-1.591 1.1625-1.7437 1.7812-1.125 0.62501 0.625 2.9277 1.9001 3.2812 4.375 0.35355 2.4749-0.89737 3.1759-1.7812 2.4688-0.88388-0.70711-1.2295-1.0429-1.4062-1.75-0.17677-0.70711-3.8741 1.0634-3.3438 1.5938 0.53033 0.53033 1.5751 3.8652 2.8125 4.2188 1.2374 0.35355 1.25 1.9491 1.25 2.6562 0 0.70711 2.125 0.55177 2.125 0.375 0-0.17678 0.15625-2.5 0.15625-2.5s4.083-0.34223 3.9062-5.4688c-0.17678-5.1265-3.0187-6.709-1.7812-7.0625 1.2374-0.35355 7.4154 2.8232 12.719 3 5.3033 0.17678 12.485-5.125 22.031-5.125 7.083 0 13.02 3.2927 15.625 5v1.7188c0 0.82314 1.1497 1.4985 2.7813 1.7812 0.27358 0.047421 0.54575 0.1022 0.84374 0.125 0.25064 0.01918 0.51737 0.03125 0.78125 0.03125 0.04187 5e-4 0.082848 0 0.12501 0h0.21874c0.34055 0 0.68134 2.98e-4 1-0.03125 2.015-0.17938 3.5313-0.96363 3.5313-1.9062v-1.7188c2.6055-1.7073 8.542-5 15.625-5 9.5459 0 16.728 5.3018 22.031 5.125 5.3033-0.17678 11.481-3.3536 12.719-3 1.2374 0.35355-1.6045 1.936-1.7812 7.0625-0.17677 5.1265 3.9062 5.4688 3.9062 5.4688s0.15625 2.3232 0.15625 2.5c0 0.17677 2.125 0.33211 2.125-0.375s0.012573-2.3027 1.25-2.6562c1.2374-0.35355 2.2822-3.6884 2.8125-4.2188 0.53032-0.53033-3.167-2.3009-3.3438-1.5938-0.17677 0.70711-0.52237 1.0429-1.4062 1.75-0.88388 0.70711-2.1348 0.006119-1.7812-2.4688 0.35356-2.4749 2.6562-3.75 3.2812-4.375 0.61871-0.61872 1.2638-0.46599 1.75 1.125 0.50877 1.665 3.9795-2.2108 4.1562-3.625 0.17677-1.4142-3.8232-3.6866-4-3.1562-0.17677 0.53033-0.87277 1.47-1.0938 0.71875-0.19954-0.67837-3.3787-2.9571-5.5-2.25-2.1213 0.70711-4.0591 2.8036-8.125 3.6875-4.0659 0.88388-5.6762-0.49726-11.5-3.7188-7.0038-3.8742-10.073-4.5625-15.906-4.5625-4.3684 0-10.439 1.5439-15.375 4.4062v-4.3438c0-0.94262-1.5163-1.7269-3.5313-1.9062-0.0308-0.002739-0.062706 0.00246-0.09375 0-0.24892-0.022099-0.51912-0.02808-0.78124-0.03125h-0.46876z"/>
   <path id="h" d="m41.896 28.395s6.8059 3.7123 13.523 3.7123c6.7175 0 14.496-6.5407 23.511-6.5407 7.7809 0 14.618 4.6981 18.582 7.173" fill="#7f7f7f" stroke-width="0"/>
   <use transform="matrix(-1 0 0 1 199.51 5.0894e-7)" width="204" height="208" xlink:href="#h"/>
  </g>
  <path d="m98.466 23.147v-3.4363c2.3879-1.0384 4.2384-2.3148 6.6257 0v3.1015l-6.6257 0.3348z" opacity=".75"/>
  <path d="m101.55 22.338c-0.26325 0-0.52933 0.01203-0.77938 0.031139-0.29726 0.02273-0.56877 0.07732-0.84172 0.12458-1.6276 0.28182-2.7745 0.95489-2.7745 1.7752v15.167c0 0.82036 1.1469 1.4934 2.7745 1.7752 0.27295 0.04726 0.54446 0.10186 0.84172 0.12458 0.25005 0.019123 0.51613 0.031151 0.77938 0.031151 0.041771 5e-4 0.082634 0 0.12469 0h0.21822c0.33972 0 0.6797 3.01e-4 0.9976-0.031151 2.0101-0.17877 3.5227-0.96039 3.5227-1.8998v-15.167c0-0.93944-1.5126-1.721-3.5227-1.8998-0.030724-0.002729-0.062553 0.002451-0.093513 0-0.24834-0.022018-0.51788-0.027979-0.77938-0.031139h-0.46761z" opacity=".75"/>
  <path d="m97.766 175.4v-130.79l8.0273-0.0444-0.0425 131.72-7.9848-0.8877z" opacity=".75"/>
  <use transform="matrix(1 0 0 -1 0 350.45)" width="204" height="208" xlink:href="#f"/>
  <path id="g" d="m97.574 44.754h8.4095s-1.5151-2.2696-4.3154-2.2696c-2.8004 0-4.0941 2.1574-4.0941 2.2696z" fill="#7f7f7f" opacity=".75" stroke-width="0"/>
  <use id="j" transform="matrix(1 0 0 1.0631 0 -7.4276)" width="204" height="208" fill="#7f7f7f" stroke-width="0" xlink:href="#g"/>
  <use transform="matrix(1 0 0 -1 0 85.126)" width="204" height="208" xlink:href="#j"/>
  <path d="m99.472 14.616v2.5528s-0.15906 0.081789-0.1802 0.090099c-0.005844 0.0023-0.052742-0.00289-0.060059 0-0.98967 0.17558-2.3752 0.52064-2.8231 1.0211-0.1795 0.2006-0.13229 0.33565 0 0.51056 0.26397 0.34901 2.5878 1.4416 5.1956 1.4416 0.048462 0 0.10109 0.00115 0.15017 0 0.059029 0.00165 0.12204 0 0.18019 0 2.6078 0 4.9245-1.0924 5.1956-1.4416 0.21525-0.2772 0.14859-0.32731 0-0.51056-0.28077-0.34626-1.84-0.84761-2.823-1.0211-0.003654-0.00145-0.026741 0.001301-0.030037 0-0.02713-0.010689-0.21022-0.090099-0.21022-0.090099v-2.5528h-4.595z" opacity=".75"/>
  <path d="m107.32 10.596a5.5405 5.5405 0 1 1 -11.081 0 5.5405 5.5405 0 1 1 11.081 0z" opacity=".75"/>
  <path id="i" d="m157 42.411c-0.18341 1.6218-0.21643 3.2435 0 4.8653 0 0-3.0633-0.042728-3.0633 0.66071s0.3835 13.442-0.72078 14.716c-1.1043 1.2742-1.8028 1.0099-2.3125 0.33036-0.50966-0.67956-2.0225-0.58004-2.1924-0.24026-0.16988 0.33977-0.54245 2.4226 0.5406 3.1234 1.5112 0.97784 5.2763 0.94971 5.6161-2.7029 0.33978-3.6526 0.32997-6.7873 1.7419-6.7873 0.50967 0 0.48052 1.7403 0.48052 3.694s-0.17078 2.4584-0.51054 2.8831c-0.3398 0.42472-0.25484 4.5049 0 4.5049h2.5528c0.25484 0 0.33978-4.0802 0-4.5049-0.33978-0.42472-0.51054-0.92939-0.51054-2.8831s-0.23938-3.694 0.27029-3.694c1.532 0 1.342 2.8044 1.6818 6.457 0.33977 3.6526 3.8571 3.748 5.556 3.1534 1.6989-0.59462 0.87442-3.0462 0.72078-3.3937-0.22995-0.51997-1.2322-0.078899-1.862 0.30033-0.72772 0.43819-1.4485 0.94381-2.5528-0.33036s-1.2013-13.922-1.2013-14.626c0-0.70344-2.793-0.66071-2.793-0.66071-0.070648-1.6218-0.29929-3.2435 0-4.8653-0.73006 0.39929-1.1058 0.23166-1.4416 0zm0.7809 5.8563c0.81526 0 1.4716 0.14359 1.4716 0.33036v2.2825c0 0.18676-0.65633 0.33035-1.4716 0.33035-0.81526 0-1.4716-0.14359-1.4716-0.33035v-2.2825c0-0.18677 0.65634-0.33036 1.4716-0.33036z" fill="#7f7f7f" opacity=".75" stroke-width="0"/>
  <path d="m116 153.27c26.074 14.616 59.097 13.799 84.945 0 2.1367-1.2888-28.239-4.6335-42.613-4.6335-25.685 0-42.799 2.5524-42.332 4.6335z" opacity=".75"/>
  <path d="m158.32 63.108c1.5046 6.8847-1.2825 4.1147-1.3815 5.4465l-0.1502 94.962" opacity=".75"/>
  <use transform="matrix(-1 0 0 1 315.81 0)" width="204" height="208" xlink:href="#use5570"/>
  <use transform="matrix(-1 0 0 1 203.57 0)" width="204" height="208" xlink:href="#i"/>
  <path d="m116 153.17c28.452 12.577 59.097 10.062 84.945 0-0.58151 2.9372-15.183 20.957-43.632 20.956-28.063-0.001007-41.312-18.917-41.312-20.956z" opacity=".75"/>
  <path d="m45.353 62.774c-1.5047 6.8847 1.2825 4.1147 1.3815 5.4465l0.1502 94.962" opacity=".75"/>
  <use transform="matrix(-1 0 0 1 203.49 0)" width="204" height="208" xlink:href="#use5570"/>
  <path d="m4.0101 153.17c28.452 12.577 59.097 10.062 84.945 0-0.58151 2.9372-15.182 20.957-43.632 20.956-28.063-0.001007-41.312-18.917-41.312-20.956z" opacity=".75"/>
  <path d="m45.154 41.811c-0.18341 1.6218-0.21643 3.2435 0 4.8653 0 0-3.0633-0.042732-3.0633 0.66071s0.3835 13.442-0.72078 14.716c-1.1043 1.2742-1.8028 1.0099-2.3125 0.33036-0.50966-0.67957-2.0225-0.58004-2.1924-0.24027-0.16988 0.33978-0.54245 2.4226 0.5406 3.1234 1.5112 0.97783 5.2763 0.9497 5.6161-2.7029 0.33978-3.6526 0.32997-6.7874 1.7419-6.7874 0.50967 0 0.48051 1.7403 0.48051 3.694s-0.17077 2.4584-0.51054 2.8831c-0.3398 0.42472-0.25484 4.5049 0 4.5049h2.5528c0.25484 0 0.33978-4.0801 0-4.5049-0.33978-0.42472-0.51055-0.92939-0.51055-2.8831s-0.23938-3.694 0.2703-3.694c1.532 0 1.342 2.8044 1.6818 6.457 0.33977 3.6526 3.8571 3.748 5.556 3.1534 1.6989-0.59462 0.87442-3.0462 0.72078-3.3937-0.22995-0.51996-1.2322-0.078892-1.862 0.30033-0.72772 0.4382-1.4485 0.94381-2.5528-0.33036s-1.2013-13.922-1.2013-14.626c0-0.70344-2.793-0.66071-2.793-0.66071-0.070652-1.6218-0.29929-3.2435 0-4.8653-0.73006 0.39929-1.1058 0.23166-1.4416 0zm0.7809 5.8563c0.81526 0 1.4716 0.14359 1.4716 0.33036v2.2825c0 0.18676-0.65633 0.33035-1.4716 0.33035-0.81526 0-1.4716-0.14359-1.4716-0.33035v-2.2825c0-0.18677 0.65634-0.33036 1.4716-0.33036z" opacity=".75"/>
  <path transform="rotate(20 22.334 108.33)" d="m21.79 58.129c-1.5047 6.8847 1.2825 4.1147 1.3815 5.4465l0.1502 94.962" opacity=".75"/>
  <path transform="rotate(20 134.79 109.26)" d="m134.25 59.054c-1.5046 6.8847 1.2825 4.1147 1.3815 5.4465l0.1502 94.962" opacity=".75"/>
  <path transform="rotate(-20 68.459 108.59)" d="m67.916 58.387c-1.5047 6.8847 1.2825 4.1147 1.3815 5.4465l0.1502 94.962" opacity=".75"/>
  <path transform="rotate(-20 181.12 109.08)" d="m180.58 58.872c-1.5046 6.8847 1.2825 4.1147 1.3815 5.4465l0.1502 94.962" opacity=".75"/>
 </g>
</svg>
